<svg xmlns="http://www.w3.org/2000/svg" fill="none" viewBox="0 0 31 32" height="32" width="31">
<g clip-path="url(#clip0_3051_3832)">
<path stroke-miterlimit="10" stroke-width="0.915918" stroke="#1F1F1F" d="M15.6137 30.7215C23.7989 30.7215 30.4343 24.086 30.4343 15.9008C30.4343 7.71553 23.7989 1.08008 15.6137 1.08008C7.42842 1.08008 0.792969 7.71553 0.792969 15.9008C0.792969 24.086 7.42842 30.7215 15.6137 30.7215Z"></path>
<path stroke-miterlimit="10" stroke-width="0.915918" stroke="#1F1F1F" d="M26.0792 5.43359L5.14648 26.3663"></path>
<path stroke-linejoin="round" stroke-linecap="round" stroke-width="0.915918" stroke="#1F1F1F" d="M13.0211 10.2796L9.98828 13.3125L17.1795 20.5037L20.2124 17.4709L13.0211 10.2796Z"></path>
<path stroke-linejoin="round" stroke-linecap="round" stroke-width="0.915918" stroke="#1F1F1F" d="M19.5781 18.1211L17.8301 19.8691L19.6033 21.6423L21.3513 19.8943L19.5781 18.1211Z"></path>
<path stroke-linejoin="round" stroke-linecap="round" stroke-width="0.915918" stroke="#1F1F1F" d="M9.13963 7.68361L7.3916 9.43164L10.632 12.672L12.38 10.924L9.13963 7.68361Z"></path>
<path stroke-linejoin="round" stroke-linecap="round" stroke-width="0.915918" stroke="#1F1F1F" d="M20.4766 20.7676L23.666 23.957"></path>
<path stroke-linejoin="round" stroke-linecap="round" stroke-width="0.915918" stroke="#1F1F1F" d="M6.37305 10.4493L10.1583 6.66406"></path>
<path stroke-linejoin="round" stroke-linecap="round" stroke-width="0.915918" stroke="#1F1F1F" d="M8.88086 14.4214L14.1303 9.17188"></path>
<path stroke-linejoin="round" stroke-linecap="round" stroke-width="0.915918" stroke="#1F1F1F" d="M15.6513 12.9062L14.8154 13.7421"></path>
<path stroke-linejoin="round" stroke-linecap="round" stroke-width="0.915918" stroke="#1F1F1F" d="M18.6113 15.8691L17.7754 16.7021"></path>
</g>
<defs>
<clipPath id="clip0_3051_3832">
<rect transform="translate(0.34668 0.634766)" fill="white" height="30.5306" width="30.5306"></rect>
</clipPath>
</defs>
</svg>
