<svg xmlns="http://www.w3.org/2000/svg" fill="none" viewBox="0 0 32 32" height="32" width="32">
<g clip-path="url(#clip0_3051_3889)">
<path stroke-miterlimit="10" stroke-width="0.915918" stroke="#1F1F1F" d="M15.7943 30.782C23.9796 30.782 30.615 24.1465 30.615 15.9613C30.615 7.77607 23.9796 1.14062 15.7943 1.14062C7.60908 1.14062 0.973633 7.77607 0.973633 15.9613C0.973633 24.1465 7.60908 30.782 15.7943 30.782Z"></path>
<path stroke-miterlimit="10" stroke-width="0.915918" stroke="#1F1F1F" d="M26.2599 5.49414L5.32715 26.4269"></path>
<path stroke-linejoin="round" stroke-linecap="round" stroke-width="0.915918" stroke="#1F1F1F" d="M17.1124 10.8242H15.4525H13.7955L10.8848 15.2378V20.4073V25.5767H15.4525H20.0232V20.4073V15.2378L17.1124 10.8242Z"></path>
<path stroke-linejoin="round" stroke-linecap="round" stroke-width="0.915918" stroke="#1F1F1F" d="M15.4521 19.8026V10.8242"></path>
<path stroke-linejoin="round" stroke-linecap="round" stroke-width="0.915918" stroke="#1F1F1F" d="M14.4355 8.72656V10.8252"></path>
<path stroke-linejoin="round" stroke-linecap="round" stroke-width="0.915918" stroke="#1F1F1F" d="M16.4717 8.72656V10.8252"></path>
<path stroke-linejoin="round" stroke-linecap="round" stroke-width="0.915918" stroke="#1F1F1F" d="M12.4492 7.56304L14.779 5.75195H19.7588V6.94946L17.011 8.50267H12.4492V7.56304Z"></path>
<path stroke-linejoin="round" stroke-linecap="round" stroke-width="0.915918" stroke="#1F1F1F" d="M21.2998 5.75195V6.81311"></path>
</g>
<defs>
<clipPath id="clip0_3051_3889">
<rect transform="translate(0.530273 0.695312)" fill="white" height="30.5306" width="30.5306"></rect>
</clipPath>
</defs>
</svg>
